/* XPM */
static char *result[] = {
/* columns rows colors chars-per-pixel */
"64 64 179 2 ",
"   c #39383B",
".  c #2B282C",
"X  c #404635",
"o  c #3C3C41",
"O  c #424246",
"+  c #45474C",
"@  c #46494D",
"#  c #484B4F",
"$  c #4A4C47",
"%  c #4A4D52",
"&  c #4E5156",
"*  c #515357",
"=  c #52555A",
"-  c #56595E",
";  c #58595E",
":  c #5D664A",
">  c #6E7B4A",
",  c #6A7C54",
"<  c #595C62",
"1  c #575B61",
"2  c #5D6166",
"3  c #5F6268",
"4  c #62656B",
"5  c #65696E",
"6  c #6E7862",
"7  c #666B70",
"8  c #696D72",
"9  c #6D7176",
"0  c #6E7379",
"q  c #73777D",
"w  c #75797F",
"e  c #747B76",
"r  c #6B8D31",
"t  c #6F9534",
"y  c #719633",
"u  c #749C36",
"i  c #799D35",
"p  c #7AA438",
"a  c #7EAA3B",
"s  c #7C8F47",
"d  c #7D8D5F",
"f  c #7F995A",
"g  c #7A8674",
"h  c #83AC3A",
"j  c #84B43D",
"k  c #8CB23A",
"l  c #8BB83E",
"z  c #93B33B",
"x  c #99BD3B",
"c  c #93BD3D",
"v  c #99C23E",
"b  c #8AA747",
"n  c #88BB40",
"m  c #97BA49",
"M  c #93AB5F",
"N  c #94B658",
"B  c #85976F",
"V  c #879978",
"C  c #8CA768",
"Z  c #97B865",
"A  c #9DB770",
"S  c #95A96E",
"D  c #8DC242",
"F  c #92C644",
"G  c #94CB45",
"H  c #9ACE45",
"J  c #98C741",
"K  c #97D046",
"L  c #9DD246",
"P  c #9AD449",
"I  c #9EDA4A",
"U  c #9DC357",
"Y  c #A1CF42",
"T  c #A5D645",
"R  c #A5D947",
"E  c #A2DE4B",
"W  c #A9DE49",
"Q  c #A1D14D",
"!  c #A5CE5D",
"~  c #A7DB54",
"^  c #A7D452",
"/  c #A5E44D",
"(  c #ABE44B",
")  c #ADEA4D",
"_  c #B1EE4E",
"`  c #B3F14F",
"'  c #A9EE50",
"]  c #AAE959",
"[  c #ADF251",
"{  c #B3F552",
"}  c #B5FC54",
"|  c #BAFE55",
" . c #BCFF5A",
".. c #B6FE5A",
"X. c #ACD76D",
"o. c #B3D27F",
"O. c #A6C27A",
"+. c #ACE06F",
"@. c #B6F569",
"#. c #B8E679",
"$. c #C4FF5C",
"%. c #C9FF78",
"&. c #767B81",
"*. c #7A7E85",
"=. c #7C8087",
"-. c #7D8289",
";. c #7F8881",
":. c #81868C",
">. c #85898F",
",. c #858A91",
"<. c #898E95",
"1. c #8B9097",
"2. c #8D929A",
"3. c #91969D",
"4. c #93999F",
"5. c #879486",
"6. c #99A59B",
"7. c #ABBD84",
"8. c #959BA2",
"9. c #999EA5",
"0. c #9197A0",
"q. c #9BA0A7",
"w. c #9DA3AA",
"e. c #A1A6AD",
"r. c #A2A9AE",
"t. c #A4AAB2",
"y. c #A9AEB6",
"u. c #ADB2BA",
"i. c #A9B1B8",
"p. c #B1B6BE",
"a. c #B2BCBD",
"s. c #ADC098",
"d. c #B2C39D",
"f. c #B8E28C",
"g. c #BBDBA1",
"h. c #B8C7B7",
"j. c #C6EC92",
"k. c #D1FF95",
"l. c #C3D8BB",
"z. c #CCEAAA",
"x. c #CDF1A6",
"c. c #CEE6BA",
"v. c #D7FFB1",
"b. c #AFB6C0",
"n. c #B4BAC3",
"m. c #B9BFC6",
"M. c #B7BFCA",
"N. c #BCC3CB",
"B. c #BBC6C1",
"V. c #BFC7D0",
"C. c #C1C6CF",
"Z. c #C9D7CA",
"A. c #C2C7D0",
"S. c #C4CAD3",
"D. c #C8CED6",
"F. c #C7CFD9",
"G. c #CACFD8",
"H. c #CBD3DC",
"J. c #CED9D8",
"K. c #D0DFD0",
"L. c #E7FFD8",
"P. c #CDD6E0",
"I. c #D3DAE4",
"U. c #D8DEE7",
"Y. c #D6DEE9",
"T. c #D9DFE8",
"R. c #DAE2EB",
"E. c #DEE7F1",
"W. c #DFE8F3",
"Q. c #E0E7F1",
"!. c #E3EBF4",
"~. c #E5EEF8",
"^. c #E8EFF9",
"/. c #EBF3FD",
"(. c #E7F0FA",
"). c #F3FCFF",
"_. c #FFFFFF",
"`. c #F0F7FF",
"'. c None",
/* pixels */
"'.'.'.'.'.'.'.'.'.'.'.'.'.'.'.'.'.'.'.'.'.'.'.'.'.'.'.'.'.'.'.'.'.'.'.'.'.'.'.'.'.'.'.'.'.'.'.'.'.'.'.'.'.'.'.'.'.'.'.'.'.'.'.'.",
"'.'.'.'.'.'.'.'.'.'.'.'.'.'.'.'.'.'.'.'.'.'.'.'.'.'.'.'.'.'.'.'.'.'.'.'.'.'.'.'.'.'.'.'.'.'.'.'.'.'.'.'.'.'.'.'.'.'.'.'.'.'.'.'.",
"'.'.'.'.'.'.'.'.'.'.'.'.'.'.'.'.'.'.'.'.'.'.'.'.'.'.'.'.'.'.'.'.'.'.'.'.'.'.'.'.'.'.'.'.'.'.'.'.'.'.'.'.'.'.'.'.'.'.'.'.'.'.'.'.",
"'.'.'.'.'.'.'.'.'.'.'.'.'.'.'.'.'.'.'.'.'.'.'.'.'.'.'.'.'.'.'.'.'.'.'.'.'.'.'.'.'.'.'.'.'.'.'.'.'.'.'.'.'.'.'.'.'.'.'.'.'.'.'.'.",
"'.'.'.'.'.'.'.'.'.'.'.'.'.'.'.'.'.'.'.'.'.'.'.'.'.'.'.'.'.'.'.'.'.'.'.'.'.'.'.'.'.'.'.'.'.'.'.'.'.'.'.'.'.'.'.'.'.'.'.'.'.'.'.'.",
"'.- -.e.N.P.E./.).).)._._.)./.!.R.P.F.V.M.b.t.q.0.<.:.*.&.&.&.&.&.&.*.*.-.:.<.0.e.n.P./.).~.R.P.V.m.i.w.0.<.=.w -.8.m.H.H.H.H.'.",
"'.O ,._._._._./.R.D.N.y.q.1.-.w 7 4 1 = & & & & % % % % % % % % % % % % % % % & * * * - 1 9 -.0.q.w.w.8.2.0.q.i.a.h.d.7.O.S.F.'.",
"'.'.O N._._._._.^.J.N.i.9.<.*.9 4 - & % + + + + @ + @ @ + + + + + + + + @ + & 1 0 -.w.N.V.t.2.=.0 0 g B C M N m x x v z s.F.'.'.",
"'.'.. * ~._._._._.E.G.n.r.3.:.0 5 < = % + + + + + + + + + + + + & 1 < 8 =.2.q.w.w.q.1.5.V C U U W _ _ _ _ _ ( W T T x S t.'.'.'.",
"'.'.'.  *._._._._.`.I.C.u.9.<.w 8 < - % # + + + + * ; < 4 &.1.t.N.F.I.Y.J.l.g.f.#.@...} [ [ } ..$.$.$.| | ` _ ( W v b <.'.'.'.'.",
"'.'.'.'.O y._._._._.Q.D.p.e.1.*.9 4 4 7 q *.,.1.4.8.e.p.V.P.K.c.z.j.#.~ P G F D D F K I / ' [ ..| $.$.$.$.` ` ) ( m e < '.'.'.'.",
"'.'.'.'.# ; I._._._./.H.C.C.m.C.u.t.8.,.*.w &.;.5.S A Z N h h i y r r t u p a j a D G K I / [ } | $.$.$.$.| { _ v , 1 '.'.'.'.'.",
"'.'.'.'.'.= &.`._._.).I.Q.9.= o o $ : > s b z x x x z k k c c F J H L R E ( ) [ } .. .} } { _ ) ( ( _ $.$. .| T d 2 # '.'.'.'.'.",
"'.'.'.'.'.@ 4 8._._._.U.S.`.'.'.'.'.'.'.'.'.'.'.'.'.'.'.'.'.'.'.'.'.'.'.'.'.'.'.'.'.'.'.'.'.'.'.'.T | $.$. ._ M *.% '.'.'.'.'.'.",
"'.'.'.'.'.'.# &.N._._.R.C.H.'.'.'.'.'.'.'.'.'.'.'.'.'.'.'.'.'.'.'.'.'.'.'.'.'.'.'.'.'.'.'.'.'.'.'.( |  .$.$.U w.- '.'.'.'.'.'.'.",
"'.'.'.'.'.'.+ % 1.R._.T.C.y.Q.'.'.'.'.'.'.'.'.'.'.'.'.'.'.'.'.'.'.'.'.'.'.'.'.'.'.'.'.'.'.'.'.'.( [ }  .$.^ B.q + '.'.'.'.'.'.'.",
"'.'.'.'.'.'.'.+ 2 t./.Y.N.i.u.'.'.'.'.'.'.'.'.'.'.'.'.'.'.'.'.'.'.'.'.'.'.'.'.'.'.'.'.'.'.'.'.'./ ' { } W Z.9.+ '.'.'.'.'.'.'.'.",
"'.'.'.'.'.'.'.'.+ &.M.~.N.t.4.S.'.'.'.'.'.'.'.'.'.'.'.'.'.'.'.'.'.'.'.'.'.'.'.'.'.'.'.'.'.'.'.( I / [ ( z.F.% + '.'.'.'.'.'.'.'.",
"'.'.'.'.'.'.'.'.@ + 8.P.I.e.2.1.Y.'.'.'.'.'.'.'.'.'.'.'.'.'.'.'.'.'.'.'.'.'.'.'.'.'.'.'.'.'.'.I P E / f.P.- + '.'.'.'.'.'.'.'.'.",
"'.'.'.'.'.'.'.'.'.+ & n.Q.n.<.*.t.'.'.'.'.'.'.'.'.'.'.'.'.'.'.'.'.'.'.'.'.'.'.'.'.'.'.'.'.'./ G K P ! n.5 + + '.'.'.'.'.'.'.'.'.",
"'.'.'.'.'.'.'.'.'.@ @ < H.!.3.&.9 S.'.'.'.'.'.'.'.'.'.'.'.'.'.'.'.'.'.'.'.'.'.'.'.'.'.'.'.{ F D G L 6.0 @ @ '.'.'.'.'.'.'.'.'.'.",
"'.'.'.'.'.'.'.'.'.'.@ % *.E.I.q 4 ,.'.'.'.'.'.'.'.'.'.'.'.'.'.'.'.'.'.'.'.'.'.'.'.'.'.'.'.E j l H V 0 % @ '.'.'.'.'.'.'.'.'.'.'.",
"'.'.'.'.'.'.'.'.'.'.& @ % t./.m.3 - u.'.'.'.'.'.'.'.'.'.'.'.'.'.'.'.'.'.'.'.'.'.'.'.'.'.} j j K f 4 = + & '.'.'.'.'.'.'.'.'.'.'.",
"'.'.'.'.'.'.'.'.'.'.'.& + * H./.4.= 7 V.'.'.'.'.'.'.'.'.'.'.'.'.'.'.'.'.'.'.'.'.'.'.'.'.G p n b & 1 + % '.'.'.'.'.'.'.'.'.'.'.'.",
"'.'.'.'.'.'.'.'.'.'.'.'.% @ 5 `.~.0 % 3.'.'.'.'.'.'.'.'.'.'.'.'.'.'.'.'.'.'.'.'.'.'.'.} u p F   < # # = '.'.'.'.'.'.'.'.'.'.'.'.",
"'.'.'.'.'.'.'.'.'.'.'.'.- @ @ :._.I.- = b.'.'.'.'.'.'.'.'.'.'.'.'.'.'.'.'.'.'.'.'.'.'.n y P X & & + = '.'.'.'.'.'.'.'.'.'.'.'.'.",
"'.'.'.'.'.'.'.'.'.'.'.'.'.= + & y._.n.% *.'.'.'.'.'.'.'.'.'.'.'.'.'.'.'.'.'.'.'.'.'.' r H , - < + % 4 '.'.'.'.'.'.'.'.'.'.'.'.'.",
"'.'.'.'.'.'.'.'.'.'.'.'.'.5 # * &.H._.0.% w.'.'.'.'.'.'.'.'.'.'.'.'.'.'.'.'.'.'.'. .u n S 8 9 @ @ 3 '.'.'.'.'.'.'.'.'.'.'.'.'.'.",
"'.'.'.'.'.'.'.'.'.'.'.'.'.'.4 q 9.w././.w 5 '.'.'.'.'.'.'.'.'.'.'.'.'.'.'.'.'.'.'.P u +.:.=.& # = '.'.'.'.'.'.'.'.'.'.'.'.'.'.'.",
"'.'.'.'.'.'.'.'.'.'.'.'.'.'.q 9.D.~.n.).I.3 1.'.'.'.'.'.'.'.'.'.'.'.'.'.'.'.'.'. .r @.r.4.< & % 0 '.'.'.'.'.'.'.'.'.'.'.'.'.'.'.",
"'.'.'.'.'.'.'.'.'.'.'.'.'.'.'.8._._._.N.).n.3 q.'.'.'.'.'.'.'.'.'.'.'.'.'.'.'.'.n ] h.y.8 - * 5 '.'.'.'.'.'.'.'.'.'.'.'.'.'.'.'.",
"'.'.'.'.'.'.'.'.'.'.'.'.'.'.'.'.!._._._.S.~.q.=.'.'.'.'.'.'.'.'.'.'.'.'.'.'.'.) K c.S.:.2 ; < -.'.'.'.'.'.'.'.'.'.'.'.'.'.'.'.'.",
"'.'.'.'.'.'.'.'.'.'.'.'.'.'.'.'.w._._._./.H.I.:.1.'.'.'.'.'.'.'.'.'.'.'.'.'.'.K v.R.e.5 3 ; &.'.'.'.'.'.'.'.'.'.'.'.'.'.'.'.'.'.",
"'.'.'.'.'.'.'.'.'.'.'.'.'.'.'.'.'.I._._._.E.P.N.<.'.'.'.'.'.'.'.'.'.'.'.'.'.[ k._.m.q 8 4 8 1.'.'.'.'.'.'.'.'.'.'.'.'.'.'.'.'.'.",
"'.'.'.'.'.'.'.'.'.'.'.'.'.'.'.'.'.q._._._._.R.A.t.1.'.'.'.'.'.'.'.'.'.'.'.| %._.U.>.q 8 5 <.'.'.'.'.'.'.'.'.'.'.'.'.'.'.'.'.'.'.",
"'.'.'.'.'.'.'.'.'.'.'.'.'.'.'.'.'.'.D._._._._.I.b.0.'.'.'.'.'.'.'.'.'.'.'. ._.`.q.:.w 9 *.'.'.'.'.'.'.'.'.'.'.'.'.'.'.'.'.'.'.'.",
"'.'.'.'.'.'.'.'.'.'.'.'.'.'.'.'.'.'.w._._._._._.F.w.-.'.'.'.'.'.'.'.'.'.{ L.).n.<.-.w q 9.'.'.'.'.'.'.'.'.'.'.'.'.'.'.'.'.'.'.'.",
"'.'.'.'.'.'.'.'.'.'.'.'.'.'.'.'.'.'.'.N._._._._._.b.2.-.'.'.'.'.'.'.'.'.x./.H.8.1.:.*.1.'.'.'.'.'.'.'.'.'.'.'.'.'.'.'.'.'.'.'.'.",
"'.'.'.'.'.'.'.'.'.'.'.'.'.'.'.'.'.'.'.'./._._._._.`.9.-.'.'.'.'.'.'.'.#.I.U.r.9.1.:.:.r.'.'.'.'.'.'.'.'.'.'.'.'.'.'.'.'.'.'.'.'.",
"'.'.'.'.'.'.'.'.'.'.'.'.'.'.'.'.'.'.'.'.n._._._._._.W.-.&.'.'.'.'.'.X.a.U.p.e.4.1.:.9.'.'.'.'.'.'.'.'.'.'.'.'.'.'.'.'.'.'.'.'.'.",
"'.'.'.'.'.'.'.'.'.'.'.'.'.'.'.'.'.'.'.'.'.T._._._._._.D.5 '.'.'.'.'.6.C.A.y.e.4.1.1.'.'.'.'.'.'.'.'.'.'.'.'.'.'.'.'.'.'.'.'.'.'.",
"'.'.'.'.'.'.'.'.'.'.'.'.'.'.'.'.'.'.'.'.'.y._._._._._._.t.< '.'.'.&.q.H.n.y.e.4.1.w.'.'.'.'.'.'.'.'.'.'.'.'.'.'.'.'.'.'.'.'.'.'.",
"'.'.'.'.'.'.'.'.'.'.'.'.'.'.'.'.'.'.'.'.'.'.D._._._._._.).1.7 '.'.w D.N.p.y.q.4.9.'.'.'.'.'.'.'.'.'.'.'.'.'.'.'.'.'.'.'.'.'.'.'.",
"'.'.'.'.'.'.'.'.'.'.'.'.'.'.'.'.'.'.'.'.'.'.'.)._._._._._.R.<.&.0 n.D.N.p.t.q.3.w.'.'.'.'.'.'.'.'.'.'.'.'.'.'.'.'.'.'.'.'.'.'.'.",
"'.'.'.'.'.'.'.'.'.'.'.'.'.'.'.'.'.'.'.'.'.'.'.n._._._._._._.A.2.y.H.C.n.p.e.9.4.'.'.'.'.'.'.'.'.'.'.'.'.'.'.'.'.'.'.'.'.'.'.'.'.",
"'.'.'.'.'.'.'.'.'.'.'.'.'.'.'.'.'.'.'.'.'.'.'.'.Q._._._._._./.p.S.D.C.p.t.q.4.9.'.'.'.'.'.'.'.'.'.'.'.'.'.'.'.'.'.'.'.'.'.'.'.'.",
"'.'.'.'.'.'.'.'.'.'.'.'.'.'.'.'.'.'.'.'.'.'.'.'.q._._._._.).!.I.H.C.n.y.e.4.3.'.'.'.'.'.'.'.'.'.'.'.'.'.'.'.'.'.'.'.'.'.'.'.'.'.",
"'.'.'.'.'.'.'.'.'.'.'.'.'.'.'.'.'.'.'.'.'.'.'.'.'.C._._.).!.T.H.A.m.p.r.q.3.'.'.'.'.'.'.'.'.'.'.'.'.'.'.'.'.'.'.'.'.'.'.'.'.'.'.",
"'.'.'.'.'.'.'.'.'.'.'.'.'.'.'.'.'.'.'.'.'.'.'.'.'.,.^.`.!.U.H.A.m.u.t.e.4.>.'.'.'.'.'.'.'.'.'.'.'.'.'.'.'.'.'.'.'.'.'.'.'.'.'.'.",
"'.'.'.'.'.'.'.'.'.'.'.'.'.'.'.'.'.'.'.'.'.'.'.'.'.'.9.R.J.D.C.m.u.t.e.4.,.'.'.'.'.'.'.'.'.'.'.'.'.'.'.'.'.'.'.'.'.'.'.'.'.'.'.'.",
"'.'.'.'.'.'.'.'.'.'.'.'.'.'.'.'.'.'.'.'.'.'.'.'.'.'.'.p.A.C.p.u.t.q.4.<.*.'.'.'.'.'.'.'.'.'.'.'.'.'.'.'.'.'.'.'.'.'.'.'.'.'.'.'.",
"'.'.'.'.'.'.'.'.'.'.'.'.'.'.'.'.'.'.'.'.'.'.'.'.'.'.'.:.p.u.t.e.4.3.<.*.'.'.'.'.'.'.'.'.'.'.'.'.'.'.'.'.'.'.'.'.'.'.'.'.'.'.'.'.",
"'.'.'.'.'.'.'.'.'.'.'.'.'.'.'.'.'.'.'.'.'.'.'.'.'.'.'.'.<.w.9.4.3.>.:.5 '.'.'.'.'.'.'.'.'.'.'.'.'.'.'.'.'.'.'.'.'.'.'.'.'.'.'.'.",
"'.'.'.'.'.'.'.'.'.'.'.'.'.'.'.'.'.'.'.'.'.'.'.'.'.'.'.'.7 <.<.>.:.*.8 '.'.'.'.'.'.'.'.'.'.'.'.'.'.'.'.'.'.'.'.'.'.'.'.'.'.'.'.'.",
"'.'.'.'.'.'.'.'.'.'.'.'.'.'.'.'.'.'.'.'.'.'.'.'.'.'.'.'.'.8 =.*.w 8 '.'.'.'.'.'.'.'.'.'.'.'.'.'.'.'.'.'.'.'.'.'.'.'.'.'.'.'.'.'.",
"'.'.'.'.'.'.'.'.'.'.'.'.'.'.'.'.'.'.'.'.'.'.'.'.'.'.'.'.'.< 8 9 8 < '.'.'.'.'.'.'.'.'.'.'.'.'.'.'.'.'.'.'.'.'.'.'.'.'.'.'.'.'.'.",
"'.'.'.'.'.'.'.'.'.'.'.'.'.'.'.'.'.'.'.'.'.'.'.'.'.'.'.'.'.'.; 4 < '.'.'.'.'.'.'.'.'.'.'.'.'.'.'.'.'.'.'.'.'.'.'.'.'.'.'.'.'.'.'.",
"'.'.'.'.'.'.'.'.'.'.'.'.'.'.'.'.'.'.'.'.'.'.'.'.'.'.'.'.'.'.'.; * '.'.'.'.'.'.'.'.'.'.'.'.'.'.'.'.'.'.'.'.'.'.'.'.'.'.'.'.'.'.'.",
"'.'.'.'.'.'.'.'.'.'.'.'.'.'.'.'.'.'.'.'.'.'.'.'.'.'.'.'.'.'.'.% '.'.'.'.'.'.'.'.'.'.'.'.'.'.'.'.'.'.'.'.'.'.'.'.'.'.'.'.'.'.'.'.",
"'.'.'.'.'.'.'.'.'.'.'.'.'.'.'.'.'.'.'.'.'.'.'.'.'.'.'.'.'.'.'.'.'.'.'.'.'.'.'.'.'.'.'.'.'.'.'.'.'.'.'.'.'.'.'.'.'.'.'.'.'.'.'.'.",
"'.'.'.'.'.'.'.'.'.'.'.'.'.'.'.'.'.'.'.'.'.'.'.'.'.'.'.'.'.'.'.'.'.'.'.'.'.'.'.'.'.'.'.'.'.'.'.'.'.'.'.'.'.'.'.'.'.'.'.'.'.'.'.'.",
"'.'.'.'.'.'.'.'.'.'.'.'.'.'.'.'.'.'.'.'.'.'.'.'.'.'.'.'.'.'.'.'.'.'.'.'.'.'.'.'.'.'.'.'.'.'.'.'.'.'.'.'.'.'.'.'.'.'.'.'.'.'.'.'.",
"'.'.'.'.'.'.'.'.'.'.'.'.'.'.'.'.'.'.'.'.'.'.'.'.'.'.'.'.'.'.'.'.'.'.'.'.'.'.'.'.'.'.'.'.'.'.'.'.'.'.'.'.'.'.'.'.'.'.'.'.'.'.'.'.",
"'.'.'.'.'.'.'.'.'.'.'.'.'.'.'.'.'.'.'.'.'.'.'.'.'.'.'.'.'.'.'.'.'.'.'.'.'.'.'.'.'.'.'.'.'.'.'.'.'.'.'.'.'.'.'.'.'.'.'.'.'.'.'.'."
};
