/* XPM */
static char *result[] = {
/* columns rows colors chars-per-pixel */
"32 32 230 2 ",
"   c #3E3D41",
".  c #44474C",
"X  c #45474C",
"o  c #45484D",
"O  c #47494E",
"+  c #474A4E",
"@  c #474A4F",
"#  c #484A4F",
"$  c #484B4F",
"%  c #484B50",
"&  c #494C50",
"*  c #4A4C51",
"=  c #4B4D51",
"-  c #4A4D52",
";  c #4B4D52",
":  c #4B4E52",
">  c #4B4F53",
",  c #4C4F53",
"<  c #4D4F53",
"1  c #4C4F54",
"2  c #4D5054",
"3  c #4F5156",
"4  c #4E5257",
"5  c #4F5257",
"6  c #505458",
"7  c #54575D",
"8  c #586643",
"9  c #626B5E",
"0  c #575B61",
"q  c #585B60",
"w  c #585C60",
"e  c #5A5D62",
"r  c #5C6065",
"t  c #5D6065",
"y  c #5F6268",
"u  c #5F6368",
"i  c #5F6468",
"p  c #606369",
"a  c #616469",
"s  c #626668",
"d  c #61656A",
"f  c #62656B",
"g  c #62666C",
"h  c #64676D",
"j  c #65696F",
"k  c #686F68",
"l  c #6A6D72",
"z  c #6F7379",
"x  c #6E737A",
"c  c #707479",
"v  c #707678",
"b  c #70747A",
"n  c #73777E",
"m  c #74787E",
"M  c #7FAB3B",
"N  c #7F9B5D",
"B  c #83B23D",
"V  c #87B73F",
"C  c #88B93F",
"Z  c #8AB742",
"A  c #8BBE41",
"S  c #8EB84C",
"D  c #91B24A",
"F  c #91A75E",
"G  c #9CBE68",
"H  c #9DB17E",
"J  c #A3BC65",
"K  c #A7BF79",
"L  c #8DC142",
"P  c #8FC342",
"I  c #94CC45",
"U  c #97D247",
"Y  c #9CD849",
"T  c #95C053",
"R  c #A4D444",
"E  c #A0DA49",
"W  c #A9DC52",
"Q  c #A6DF58",
"!  c #A4E24C",
"~  c #A3E54D",
"^  c #A5E44D",
"/  c #ABE349",
"(  c #ACE44A",
")  c #ABE74C",
"_  c #B2EF4E",
"`  c #B3F34F",
"'  c #AEF351",
"]  c #B0F854",
"[  c #B9FD54",
"{  c #BAFF55",
"}  c #B8FD57",
"|  c #BDFF57",
" . c #B9FF58",
".. c #BBFF59",
"X. c #BEFF5A",
"o. c #9CCD60",
"O. c #9DC66F",
"+. c #9EC772",
"@. c #A4D567",
"#. c #A6C27F",
"$. c #AED17C",
"%. c #B4EF62",
"&. c #C1FF5A",
"*. c #C4FF5C",
"=. c #757A80",
"-. c #767A80",
";. c #777B83",
":. c #777D83",
">. c #787C82",
",. c #787D83",
"<. c #797D83",
"1. c #7B7E85",
"2. c #7B7F85",
"3. c #7C8086",
"4. c #80868A",
"5. c #80858C",
"6. c #80858D",
"7. c #81868C",
"8. c #82888E",
"9. c #83888E",
"0. c #83888F",
"q. c #8C968B",
"w. c #909E80",
"e. c #929E8F",
"r. c #858990",
"t. c #878B91",
"y. c #848A92",
"u. c #858A92",
"i. c #858B92",
"p. c #878B92",
"a. c #888C92",
"s. c #888C93",
"d. c #898D93",
"f. c #888C94",
"g. c #898F96",
"h. c #898F97",
"j. c #8A8F97",
"k. c #8F949A",
"l. c #90959B",
"z. c #91969C",
"x. c #91969D",
"c. c #92979D",
"v. c #9AA88F",
"b. c #A1B28F",
"n. c #9398A0",
"m. c #949AA1",
"M. c #969AA1",
"N. c #979BA2",
"B. c #999DA4",
"V. c #9A9EA5",
"C. c #999EA6",
"Z. c #9A9FA6",
"A. c #989EA8",
"S. c #9CA1A7",
"D. c #9BA1AA",
"F. c #9DA2A9",
"G. c #9CA1AA",
"H. c #9DA2AA",
"J. c #9CA2AB",
"K. c #9EA3AA",
"L. c #9FA6AD",
"P. c #A1A6AE",
"I. c #A7B1AD",
"U. c #A4A9B0",
"Y. c #A4AAB2",
"T. c #AAAFB5",
"R. c #A9B2B4",
"E. c #ACB1B8",
"W. c #ADB2BA",
"Q. c #AFB5BC",
"!. c #B0B7BB",
"~. c #B2B8BF",
"^. c #ABC18E",
"/. c #A7C98C",
"(. c #B3D194",
"). c #ABC0A0",
"_. c #B6C8AB",
"`. c #C3DBA6",
"'. c #D6F7B9",
"]. c #B2B8C0",
"[. c #B3B8C0",
"{. c #B3B9C2",
"}. c #B5BAC2",
"|. c #B6BDC7",
" X c #B8BDC4",
".X c #BABFC7",
"XX c #BAC0C7",
"oX c #BAC0C9",
"OX c #BEC4CC",
"+X c #BFC4CC",
"@X c #C1C6CE",
"#X c #C2C7D0",
"$X c #C2C8D0",
"%X c #C2C8D1",
"&X c #C5CBD3",
"*X c #C2C9D4",
"=X c #C5CCD5",
"-X c #CAD1D9",
";X c #C9D2DC",
":X c #CBD4DC",
">X c #CDD4DC",
",X c #CCD4DD",
"<X c #CED5DD",
"1X c #D9E8DC",
"2X c #D2D8E2",
"3X c #D4DBE4",
"4X c #D6DBE4",
"5X c #D4DCE6",
"6X c #D7DDE6",
"7X c #D6DDE7",
"8X c #D7DEE6",
"9X c #D9DFE8",
"0X c #D8E0E9",
"qX c #DDE3ED",
"wX c #DCE4ED",
"eX c #DFE7F0",
"rX c #F2FFE6",
"tX c #E5ECF5",
"yX c #E6EDF7",
"uX c #E9F1FA",
"iX c #ECF4FE",
"pX c #F3FBFF",
"aX c #F4FCFF",
"sX c #F5FDFF",
"dX c #F6FDFF",
"fX c #FBFFFF",
"gX c #FDFFFF",
"hX c #FEFFFF",
"jX c white",
"kX c None",
/* pixels */
"kXkXkXkXkXkXkXkXkXkXkXkXkXkXkXkXkXkXkXkXkXkXkXkXkXkXkXkXkXkXkXkX",
"kXkXkXkXkXkXkXkXkXkXkXkXkXkXkXkXkXkXkXkXkXkXkXkXkXkXkXkXkXkXkXkX",
"kXkXkXkXkXkXkXkXkXkXkXkXkXkXkXkXkXkXkXkXkXkXkXkXkXkXkXkXkXkXkXkX",
"kXP.jXhX6X].c.-.y 6 - & % + + # @ + $ 4 g 5.j.u.i.q.w.H K J _.kX",
"kX  qXjXdX&XK.3.d 3 o X $ 5 0 z g.D.I.)./.+.o.Q } [ ` ( R F kXkX",
"kXkXh jXjX9X}.L.f.,.;.4.e.b.^.#.G S V C L U ~ ] X.*.{ _ D s kXkX",
"kXkX* C.jXyX-XkXkXkXkXkXkXkXkXkXkXkXkXkXkXkXkXkX/ | &.W k kXkXkX",
"kXkXkX7 ;XuX+XkXkXkXkXkXkXkXkXkXkXkXkXkXkXkXkXkX)  ...v.1 kXkXkX",
"kXkXkXkXx 0X~.{.kXkXkXkXkXkXkXkXkXkXkXkXkXkXkXkX^ ' `.r kXkXkXkX",
"kXkXkXkX. A.%Xa.kXkXkXkXkXkXkXkXkXkXkXkXkXkXkXE Y $.n kXkXkXkXkX",
"kXkXkXkXkX> *Xn.8.kXkXkXkXkXkXkXkXkXkXkXkXkXkXA T v O kXkXkXkXkX",
"kXkXkXkXkX= u 7Xj m.kXkXkXkXkXkXkXkXkXkXkXkXP Z 9 * kXkXkXkXkXkX",
"kXkXkXkXkXkX; t.:Xi kXkXkXkXkXkXkXkXkXkXkX! M 8 2 5 kXkXkXkXkXkX",
"kXkXkXkXkXkXe : OXY.:.kXkXkXkXkXkXkXkXkXkXB N w < kXkXkXkXkXkXkX",
"kXkXkXkXkXkXkX<.XXeX0.kXkXkXkXkXkXkXkXkXI O.1., f kXkXkXkXkXkXkX",
"kXkXkXkXkXkXkXkXjXaX5X6.kXkXkXkXkXkXkXkX@.R.t p kXkXkXkXkXkXkXkX",
"kXkXkXkXkXkXkXkX2XjXiX|.h.kXkXkXkXkXkX%.1X>.a kXkXkXkXkXkXkXkXkX",
"kXkXkXkXkXkXkXkXkXgXjXeXJ.kXkXkXkXkXkXrXH.b 2.kXkXkXkXkXkXkXkXkX",
"kXkXkXkXkXkXkXkXkX<XjXjX=Xy.kXkXkXkX'.$Xr.2.kXkXkXkXkXkXkXkXkXkX",
"kXkXkXkXkXkXkXkXkXkXpXjXjXG.kXkXkX(.,XS.p.x.kXkXkXkXkXkXkXkXkXkX",
"kXkXkXkXkXkXkXkXkXkXkXjXjXfX=.kXkX!.[.Z.l.kXkXkXkXkXkXkXkXkXkXkX",
"kXkXkXkXkXkXkXkXkXkXkXtXjXjXwX;.7.$XE.N.V.kXkXkXkXkXkXkXkXkXkXkX",
"kXkXkXkXkXkXkXkXkXkXkXkXjXjXjXoX@X.XU.M.kXkXkXkXkXkXkXkXkXkXkXkX",
"kXkXkXkXkXkXkXkXkXkXkXkX>XjXsX8X#XW.B.kXkXkXkXkXkXkXkXkXkXkXkXkX",
"kXkXkXkXkXkXkXkXkXkXkXkXkX3X4X$XQ.F.d.kXkXkXkXkXkXkXkXkXkXkXkXkX",
"kXkXkXkXkXkXkXkXkXkXkXkXkXz. XT.Z.s.kXkXkXkXkXkXkXkXkXkXkXkXkXkX",
"kXkXkXkXkXkXkXkXkXkXkXkXkXkXs.k.9.c kXkXkXkXkXkXkXkXkXkXkXkXkXkX",
"kXkXkXkXkXkXkXkXkXkXkXkXkXkXkXm l kXkXkXkXkXkXkXkXkXkXkXkXkXkXkX",
"kXkXkXkXkXkXkXkXkXkXkXkXkXkXkXq kXkXkXkXkXkXkXkXkXkXkXkXkXkXkXkX",
"kXkXkXkXkXkXkXkXkXkXkXkXkXkXkXkXkXkXkXkXkXkXkXkXkXkXkXkXkXkXkXkX",
"kXkXkXkXkXkXkXkXkXkXkXkXkXkXkXkXkXkXkXkXkXkXkXkXkXkXkXkXkXkXkXkX",
"kXkXkXkXkXkXkXkXkXkXkXkXkXkXkXkXkXkXkXkXkXkXkXkXkXkXkXkXkXkXkXkX"
};
