/* XPM */
static char *result[] = {
/* columns rows colors chars-per-pixel */
"16 16 88 1 ",
"  c #242931",
". c #242A33",
"X c #262B35",
"o c #262C35",
"O c #292E36",
"+ c #2A2F37",
"@ c #292E38",
"# c #2C313A",
"$ c #2E343E",
"% c #2E343F",
"& c #31363F",
"* c #313640",
"= c #323743",
"- c #333841",
"; c #313842",
": c #323842",
"> c #353A43",
", c #343A44",
"< c #353B46",
"1 c #373D47",
"2 c #393D46",
"3 c #393E47",
"4 c #3A3E49",
"5 c #3A404B",
"6 c #3A414D",
"7 c #3B424F",
"8 c #3C414C",
"9 c #3D424C",
"0 c #3D434D",
"q c #3F454F",
"w c #3B4350",
"e c #3C4451",
"r c #435244",
"t c #455546",
"y c #4B5D4E",
"u c #4B5C4F",
"i c #404550",
"p c #404650",
"a c #424751",
"s c #434A56",
"d c #444A57",
"f c #464B56",
"g c #484D58",
"h c #485160",
"j c #4E5560",
"k c #4E5461",
"l c #4F5662",
"z c #505763",
"x c #505764",
"c c #515865",
"v c #575E6C",
"b c #575E6D",
"n c #555E6F",
"m c #58606F",
"M c #5B6573",
"N c #596374",
"B c #5A6375",
"V c #5D6675",
"C c #5D6775",
"Z c #5F6877",
"A c #5F6878",
"S c #5F687A",
"D c #626C7B",
"F c #636D7E",
"G c #646E7D",
"H c #81BA50",
"J c #82BC50",
"K c #667082",
"L c #687183",
"P c #687387",
"I c #6A7587",
"U c #697388",
"Y c #6B7689",
"T c #6C7689",
"R c #6F798B",
"E c #6F7A8B",
"W c #6D798E",
"Q c #6F7A8F",
"! c #707B8F",
"~ c #727D90",
"^ c #737D90",
"/ c #758097",
"( c #768198",
") c #768299",
"_ c #77839A",
"` c #8997AD",
"' c #8A98AD",
"] c None",
/* pixels */
"]]]]]]]]]]]]]]]]",
"]]]]]]]+O]]]]]]]",
"]]]]]]]*#]]]]]]]",
"]]]]]] 1&o]]]]]]",
"]]]]]]@5-@]]]]]]",
"]]]]].$6:%X]]]]]",
"]]]]],<7=<,]]]]]",
"]]]]>dBw;Ns4]]]]",
"]]]]iS)he(Aq]]]]",
"]]]2zT_Wn/Ilp]]]",
"]]]gbY]HJ]Fvk]]]",
"]]]fxtuUPyraj]]]",
"]]]]]0L!QK9]]]]]",
"]]]]3E'^~`R8]]]]",
"]]]]mDVZMGCc]]]]",
"]]]]]]]]]]]]]]]]"
};
