/* XPM */
static char *result[] = {
/* columns rows colors chars-per-pixel */
"64 64 85 1 ",
"  c #0C0C0F",
". c #0F0F11",
"X c #121416",
"o c #131519",
"O c #16181D",
"+ c #191B1E",
"@ c #1A1D22",
"# c #1E2125",
"$ c #1F232B",
"% c #22252C",
"& c #25282E",
"* c #252B34",
"= c #292E35",
"- c #292E38",
"; c #2B3037",
": c #2C323B",
"> c #32373F",
", c #33383F",
"< c #2F3742",
"1 c #313741",
"2 c #353B44",
"3 c #393E47",
"4 c #363D49",
"5 c #393F49",
"6 c #3B414C",
"7 c #3C4350",
"8 c #46564A",
"9 c #47584C",
"0 c #414752",
"q c #424954",
"w c #454D59",
"e c #494F5C",
"r c #47505F",
"t c #4B525E",
"y c #506944",
"u c #526D48",
"i c #597649",
"p c #5C7C4C",
"a c #4F5561",
"s c #4F5969",
"d c #505663",
"f c #525966",
"g c #545C6A",
"h c #59616F",
"j c #5B6474",
"k c #5E6877",
"l c #5F6979",
"z c #606778",
"x c #626B7B",
"c c #66707F",
"v c #76B13D",
"b c #6D9B48",
"n c #6FA144",
"m c #71A246",
"M c #7CAE58",
"N c #81BD45",
"B c #83C245",
"V c #86CB42",
"C c #8ACE45",
"Z c #8ED842",
"A c #8ED649",
"S c #93DE47",
"D c #9AEB45",
"F c #A2F745",
"G c #A5FB45",
"H c #646E81",
"J c #677183",
"K c #6A7486",
"L c #6C768A",
"P c #6E798D",
"I c #707B8F",
"U c #6E7990",
"Y c #727D92",
"T c #758196",
"R c #798597",
"E c #768299",
"W c #79869D",
"Q c #7D8A9E",
"! c #7C89A1",
"~ c #828FA2",
"^ c #8794A9",
"/ c #8996AB",
"( c #8B99AE",
") c #8D9BB1",
"_ c None",
/* pixels */
"________________________________________________________________",
"________________________________________________________________",
"_______________________________;@_______________________________",
"______________________________%,#:______________________________",
"______________________________;2@;______________________________",
"_____________________________%,_@>-_____________________________",
"____________________________o*2_+3-_____________________________",
"____________________________**3_+5*-____________________________",
"___________________________O-;5_O3:*____________________________",
"___________________________**15_O3>*-___________________________",
"__________________________+**25_X32**-__________________________",
"__________________________**-35_X53-*-__________________________",
"_________________________@=*:55_.53;*--_________________________",
"_________________________-**155_ 55<***_________________________",
"________________________%***455__553***-________________________",
"________________________***-665__655-***________________________",
"_______________________%***<455__564-***-_______________________",
"______________________o****<556__666<****_______________________",
"______________________*****4776__6662*****______________________",
"_____________________O*****4555__6646*****:_____________________",
"_____________________*****-7656__6656:*****_____________________",
"____________________@*****<4776__6666<*****-____________________",
"____________________******45666__66674******____________________",
"___________________*:*****77666__76766*****:5___________________",
"___________________351***-74676__76666:***<55___________________",
"__________________@5551**<77677__67766<**1545___________________",
"__________________;55662*475766__766754*455555__________________",
"__________________5555654767677__7767754575655__________________",
"_________________&635666js77777__76777sj5575555_________________",
"_________________235565aUU77767__57757UUa555555_________________",
"________________O35566tjTEj7777__4777jYEje65555_________________",
"________________-5563wgKYWE7677__4777EEYKgw55555________________",
"________________5555qgjYEEEH777__475H!YYIggw5535________________",
"_______________%555qggxYEY!!r77__<7r!E!YYxgf03535_______________",
"_______________2550dfgPYY!E!L77__<5L!YYYYIgff0535_______________",
"_______________350ddgjYYYE!!!s7__<s!!!!YYIjgfd035_______________",
"______________=36ddffJYYEE!!!Y7__<U!!YYEIIJffdd635______________",
"______________36addghUYYTEEW!!H__r!!Y!!YYILgfdda63______________",
"_____________#6tdddgxPUYTEWW!U____l!!YYYYIIxfffdt6______________",
"_____________,tddddgLUUYYTWU_______$K!YYIILKffdddt6_____________",
"_____________taddffjLPIYTYH____VA____7UYUPPLjfddddw_____________",
"____________=ddadddHLPPYH_____DGGD_____aYPLKxfddddd_____________",
"____________#dddddgLLPJ_____ZFDMMDGS_____jLLKgdddda_____________",
"_____________aadddxLJ_____VDBpwYUwpBDC____2xKzddaaa_____________",
"_____________daadfHk____mZb95wIE!Uw78bCN____qJfddaa_____________",
"_____________tdddf_____ni766qLEEYEU7557im_____wddaa_____________",
"_____________qadd____y85755qKYTTYYEL765568u____tddt_____________",
"_____________6da___;655655qHYYYYYEYUHw5663565__&ddt_____________",
"_____________,da___333663qxIIYYYYYIIIz0636635___0at_____________",
"_____________-d___%636530jLIIIIYIIIILIz0533335__.at_____________",
"_____________%t___,63330cTLIIIIIIPIIILIx063635___2______________",
"_________________+3363qk()TLLLLIPPLLLY)(z03363__________________",
"_________________:636qh^())YLLILLLLLI)))^h06,0,_________________",
"_________________6330g~/))))YLLLLLLI())(^~g0630_________________",
"________________;660fQ//(())(IKKKLI/(((///~a0636________________",
"________________,60fR^///(/()/IKKP/(((///^^Rd033________________",
"_______________&60fT^^//////(/^LL^//////^^^^Ta063_______________",
"_______________20dL~czzxzxxxxxxjhxxzxkkkzzzh~Lf05_______________",
"______________@qtcI__63_333_33__63_2__6_33___hxdq_______________",
"______________;0t_______3_333_5_6_63_66_333____606______________",
"_____________________5__3_3__33_3_53_3333_5_____________________",
"_____________________33_36__3___35_____3________________________",
"________________________________________________________________",
"________________________________________________________________"
};
