/* XPM */
static char *result[] = {
/* columns rows colors chars-per-pixel */
"16 16 69 1 ",
"  c #4E5155",
". c #515459",
"X c #51555A",
"o c #55595E",
"O c #6C7B5F",
"+ c #575B60",
"@ c #5E6167",
"# c #5E6267",
"$ c #60646A",
"% c #61646A",
"& c #6C7075",
"* c #6D7178",
"= c #737B71",
"- c #707479",
"; c #71757B",
": c #74787E",
"> c #6C824F",
", c #7E887C",
"< c #8DA954",
"1 c #86957A",
"2 c #94AA7D",
"3 c #99B973",
"4 c #A5BA7E",
"5 c #8FC243",
"6 c #B3F14F",
"7 c #A5E257",
"8 c #A7E059",
"9 c #B5F953",
"0 c #BDFF59",
"q c #9BC962",
"w c #A1C678",
"e c #B0E565",
"r c #7E8389",
"t c #808389",
"y c #82888F",
"u c #86898F",
"i c #8D9299",
"p c #919899",
"a c #91A182",
"s c #979FA0",
"d c #9A9FA5",
"f c #9BA0A7",
"g c #9CA1A7",
"h c #9AA0A8",
"j c #9BA1A8",
"k c #9DA3AB",
"l c #9FA5AC",
"z c #A3A9B0",
"x c #A4A9B0",
"c c #A4A9B1",
"v c #A5ABB0",
"b c #ACB1B9",
"n c #CFFD98",
"m c #B3B9C0",
"M c #BAC0C8",
"N c #BEC4CB",
"B c #C0CCC3",
"V c #C1C8D1",
"C c #CFD5DF",
"Z c #D6DDE7",
"A c #E4EBF5",
"S c #E5EDF7",
"D c #E7EEF8",
"F c #E9F1FB",
"G c #EFF7FF",
"H c #F3FAFF",
"J c #FBFFFF",
"K c white",
"L c None",
/* pixels */
"LLLLLLLLLLLLLLLL",
"LJCj;#o.X+yhpa4L",
"LZDf&%=123q706<L",
"L*FmLLLLLLLL9eLL",
"LLibLLLLLLLL8,LL",
"LLLzrLLLLLL5OLLL",
"LLL@cLLLLLL> LLL",
"LLLLAkLLLLw$LLLL",
"LLLLHSLLLns-LLLL",
"LLLLLKVLLBuLLLLL",
"LLLLLGKlvxLLLLLL",
"LLLLLLKAMdLLLLLL",
"LLLLLLLNgLLLLLLL",
"LLLLLLLt:LLLLLLL",
"LLLLLLLLLLLLLLLL",
"LLLLLLLLLLLLLLLL"
};
