/* XPM */
static char *result[] = {
/* columns rows colors chars-per-pixel */
"32 32 57 1 ",
"  c #1C1F26",
". c #1E222A",
"X c #22262D",
"o c #23282F",
"O c #252B34",
"+ c #292E35",
"@ c #292F39",
"# c #2C3037",
"$ c #2D323B",
"% c #31363E",
"& c #353B45",
"* c #393E47",
"= c #393F49",
"- c #3B414C",
"; c #3F4652",
": c #404D46",
"> c #424F49",
", c #4B5D4B",
"< c #424751",
"1 c #444A55",
"2 c #464D59",
"3 c #484E5B",
"4 c #4B515D",
"5 c #4E5561",
"6 c #505663",
"7 c #525866",
"8 c #545C6B",
"9 c #58606F",
"0 c #596272",
"q c #5D677A",
"w c #5F6879",
"e c #626B7C",
"r c #648A47",
"t c #658B48",
"y c #739963",
"u c #84C347",
"i c #89D040",
"p c #96E543",
"a c #9BEB46",
"s c #677083",
"d c #6A7386",
"f c #6C768A",
"g c #6E798C",
"h c #707B8F",
"j c #6F7C92",
"k c #727D92",
"l c #758195",
"z c #788497",
"x c #768298",
"c c #7A869C",
"v c #7C899C",
"b c #8391A5",
"n c #8694A9",
"m c #8997AC",
"M c #8B99AE",
"N c #8C9BB0",
"B c None",
/* pixels */
"BBBBBBBBBBBBBBBBBBBBBBBBBBBBBBBB",
"BBBBBBBBBBBBBBBXXBBBBBBBBBBBBBBB",
"BBBBBBBBBBBBBBB&OBBBBBBBBBBBBBBB",
"BBBBBBBBBBBBBBo&#+BBBBBBBBBBBBBB",
"BBBBBBBBBBBBBB&&##BBBBBBBBBBBBBB",
"BBBBBBBBBBBBB.&=+%+BBBBBBBBBBBBB",
"BBBBBBBBBBBB @&=+&OBBBBBBBBBBBBB",
"BBBBBBBBBBBBOO==+=+OBBBBBBBBBBBB",
"BBBBBBBBBBB.O@&=@=@O+BBBBBBBBBBB",
"BBBBBBBBBBBOO&==O&&OOBBBBBBBBBBB",
"BBBBBBBBBB.OO&;=O=&OO+BBBBBBBBBB",
"BBBBBBBBBB+O@===O==OO@BBBBBBBBBB",
"BBBBBBBBB#=@@-=-o==@+*=BBBBBBBBB",
"BBBBBBBBB*==&-;;o;;&===BBBBBBBBB",
"BBBBBBBBB=-<s;-BX-=s<==BBBBBBBBB",
"BBBBBBBB%=-0j8-BX-8j0-==BBBBBBBB",
"BBBBBBBB=-7dxx;BX=jjs5-*BBBBBBBB",
"BBBBBBB+=58kxcqB.scjh84-*BBBBBBB",
"BBBBBBB&47qkxccB&ccxhe74-BBBBBBB",
"BBBBBBB377dkxxjBB8xjhd763BBBBBBB",
"BBBBBB-659gkgBBpaBBqjf9654BBBBBB",
"BBBBBB-67edBBiuyyuBBBqe665BBBBBB",
"BBBBBB*67BBBr,5zk5,tBB2654BBBBBB",
"BBBBBB%5BB:-=3kkkj4=->B@6BBBBBBB",
"BBBBBBB6B%**2fhhhhf2-=*B<BBBBBBB",
"BBBBBBBBB*-2vhghhhhv2*=BBBBBBBBB",
"BBBBBBBB+*2zMmgfffnMz2--BBBBBBBB",
"BBBBBBBB&<lmMMbffbMmmh<*BBBBBBBB",
"BBBBBBBB<hzzzzzhfzzzllf<BBBBBBBB",
"BBBBBBB*8BBB***B**BB*BB4<BBBBBBB",
"BBBBBBBBBBBB*B*B*BBBBBBBBBBBBBBB",
"BBBBBBBBBBBBBBBBBBBBBBBBBBBBBBBB"
};
